<svg fill="currentColor" style="margin-top: 2px;" enable-background="new 0 0 84 84" viewBox="0 0 84 84" xmlns="http://www.w3.org/2000/svg"><path d="m76 0h-68c-4.4 0-8 3.6-8 8v68c0 4.4 3.6 8 8 8h68c4.4 0 8-3.6 8-8v-68c0-4.4-3.6-8-8-8zm-59.4 53.4-5.8-7c-.2-.2-.2-.6.1-.7l18.1-15c.2-.2.6-.2.7.1l5.8 7c.2.2.2.5-.1.7l-18.1 15c-.2.1-.6.1-.7-.1zm18.9 0-5.8-7c-.2-.2-.2-.5.1-.7l18.1-15c.2-.2.5-.2.7.1l5.8 7c.2.2.2.6-.1.7l-18.1 15c-.2.1-.5.1-.7-.1zm37.7-15-18.1 15c-.2.2-.6.2-.7-.1l-5.8-7c-.2-.2-.2-.6.1-.7l18.1-15c.2-.2.5-.2.7.1l5.8 7c.2.2.2.5-.1.7z"/></svg>